<?xml version="1.0" encoding="UTF-8" standalone="no"?>
<svg width="369px" height="31px" viewBox="0 0 369 31" version="1.1" xmlns="http://www.w3.org/2000/svg" xmlns:xlink="http://www.w3.org/1999/xlink" xmlns:sketch="http://www.bohemiancoding.com/sketch/ns">
    <!-- Generator: Sketch 3.4.2 (15855) - http://www.bohemiancoding.com/sketch -->
    <title>ann arbor ultimate</title>
    <desc>Created with Sketch.</desc>
    <defs></defs>
    <g id="Page-1" stroke="none" stroke-width="1" fill="none" fill-rule="evenodd" sketch:type="MSPage">
        <path d="M0.782,21.296 C0.782,26.396 4.352,30.51 9.452,30.51 C11.832,30.51 13.872,29.456 15.164,28.028 L15.232,28.028 L15.232,30 L21.182,30 L21.182,12.558 L15.164,12.558 L15.164,14.224 C13.736,12.83 11.798,12.048 9.452,12.048 C4.352,12.048 0.782,16.196 0.782,21.296 L0.782,21.296 Z M7.174,21.296 C7.174,18.882 8.976,17.182 11.254,17.182 C13.498,17.182 15.3,18.882 15.3,21.296 C15.3,23.676 13.6,25.376 11.254,25.376 C8.806,25.376 7.174,23.676 7.174,21.296 L7.174,21.296 Z M27.2235388,30 L33.2415388,30 L33.2415388,20.14 C33.2415388,18.406 35.0095388,16.74 36.8115388,16.74 C38.7495388,16.74 39.9395388,18.406 39.9395388,20.14 L39.9395388,30 L45.9575388,30 L45.9575388,18.508 C45.9575388,13.646 41.5035388,12.048 38.3075388,12.048 C36.4035388,12.048 34.6695388,13.034 33.3095388,14.394 L33.2415388,14.394 L33.2415388,12.558 L27.2235388,12.558 L27.2235388,30 Z M51.6590776,30 L57.6770776,30 L57.6770776,20.14 C57.6770776,18.406 59.4450776,16.74 61.2470776,16.74 C63.1850776,16.74 64.3750776,18.406 64.3750776,20.14 L64.3750776,30 L70.3930776,30 L70.3930776,18.508 C70.3930776,13.646 65.9390776,12.048 62.7430776,12.048 C60.8390776,12.048 59.1050776,13.034 57.7450776,14.394 L57.6770776,14.394 L57.6770776,12.558 L51.6590776,12.558 L51.6590776,30 Z M86.0801552,21.296 C86.0801552,26.396 89.6501552,30.51 94.7501552,30.51 C97.1301552,30.51 99.1701552,29.456 100.462155,28.028 L100.530155,28.028 L100.530155,30 L106.480155,30 L106.480155,12.558 L100.462155,12.558 L100.462155,14.224 C99.0341552,12.83 97.0961552,12.048 94.7501552,12.048 C89.6501552,12.048 86.0801552,16.196 86.0801552,21.296 L86.0801552,21.296 Z M92.4721552,21.296 C92.4721552,18.882 94.2741552,17.182 96.5521552,17.182 C98.7961552,17.182 100.598155,18.882 100.598155,21.296 C100.598155,23.676 98.8981552,25.376 96.5521552,25.376 C94.1041552,25.376 92.4721552,23.676 92.4721552,21.296 L92.4721552,21.296 Z M112.521694,30 L118.539694,30 L118.539694,20.82 C118.539694,20.378 118.981694,17.284 122.109694,17.284 C124.115694,17.284 125.237694,18.236 125.237694,18.236 L127.753694,13.136 C127.753694,13.136 126.189694,12.048 123.945694,12.048 C120.511694,12.048 118.607694,15.074 118.607694,15.074 L118.539694,15.074 L118.539694,12.558 L112.521694,12.558 L112.521694,30 Z M151.815233,21.296 C151.815233,16.196 148.245233,12.048 143.145233,12.048 C140.799233,12.048 138.861233,12.83 137.433233,14.224 L137.433233,0.76 L131.415233,0.76 L131.415233,30 L137.365233,30 L137.365233,28.028 L137.433233,28.028 C138.725233,29.456 140.765233,30.51 143.145233,30.51 C148.245233,30.51 151.815233,26.396 151.815233,21.296 L151.815233,21.296 Z M145.423233,21.296 C145.423233,23.676 143.791233,25.376 141.343233,25.376 C138.997233,25.376 137.297233,23.676 137.297233,21.296 C137.297233,18.882 139.099233,17.182 141.343233,17.182 C143.621233,17.182 145.423233,18.882 145.423233,21.296 L145.423233,21.296 Z M155.340772,21.296 C155.340772,26.668 159.556772,30.51 165.846772,30.51 C171.864772,30.51 176.250772,26.668 176.250772,21.296 C176.250772,15.856 171.626772,12.048 165.846772,12.048 C159.964772,12.048 155.340772,15.856 155.340772,21.296 L155.340772,21.296 Z M161.732772,21.296 C161.732772,18.882 163.534772,17.182 165.812772,17.182 C168.056772,17.182 169.858772,18.882 169.858772,21.296 C169.858772,23.676 168.158772,25.376 165.812772,25.376 C163.364772,25.376 161.732772,23.676 161.732772,21.296 L161.732772,21.296 Z M180.96631,30 L186.98431,30 L186.98431,20.82 C186.98431,20.378 187.42631,17.284 190.55431,17.284 C192.56031,17.284 193.68231,18.236 193.68231,18.236 L196.19831,13.136 C196.19831,13.136 194.63431,12.048 192.39031,12.048 C188.95631,12.048 187.05231,15.074 187.05231,15.074 L186.98431,15.074 L186.98431,12.558 L180.96631,12.558 L180.96631,30 Z M216.781388,12.558 L210.763388,12.558 L210.763388,22.316 C210.763388,28.164 213.687388,30.51 220.215388,30.51 C226.743388,30.51 229.667388,28.164 229.667388,22.316 L229.667388,12.558 L223.649388,12.558 L223.649388,20.854 C223.649388,24.288 222.731388,25.614 220.215388,25.614 C217.699388,25.614 216.781388,24.288 216.781388,20.854 L216.781388,12.558 Z M235.368927,30 L241.386927,30 L241.386927,0.76 L235.368927,0.76 L235.368927,30 Z M248.448465,12.558 L245.932465,12.558 L245.932465,17.148 L248.448465,17.148 L248.448465,23.846 C248.448465,26.94 249.604465,30.51 254.398465,30.51 C256.880465,30.51 258.818465,29.422 258.818465,29.422 L257.322465,24.56 C257.322465,24.56 256.608465,25.104 255.826465,25.104 C254.874465,25.104 254.466465,24.322 254.466465,22.69 L254.466465,17.148 L258.138465,17.148 L258.138465,12.558 L254.466465,12.558 L254.466465,6.064 L248.448465,6.064 L248.448465,12.558 Z M265.914004,1.78 C267.886004,1.78 269.484004,3.378 269.484004,5.35 C269.484004,7.322 267.886004,8.92 265.914004,8.92 C263.942004,8.92 262.344004,7.322 262.344004,5.35 C262.344004,3.378 263.942004,1.78 265.914004,1.78 L265.914004,1.78 Z M262.820004,12.558 L268.838004,12.558 L268.838004,30 L262.820004,30 L262.820004,12.558 Z M275.049543,30 L281.067543,30 L281.067543,19.8 C281.067543,18.406 281.849543,16.876 283.855543,16.876 C285.997543,16.876 286.915543,18.406 286.915543,20.14 L286.915543,30 L292.933543,30 L292.933543,19.596 C293.001543,18.27 293.817543,16.876 295.721543,16.876 C297.863543,16.876 298.781543,18.406 298.781543,20.14 L298.781543,30 L304.799543,30 L304.799543,18.508 C304.799543,13.646 301.195543,12.048 297.999543,12.048 C296.095543,12.048 294.055543,13.034 292.219543,15.244 C290.995543,12.898 288.445543,12.048 286.133543,12.048 C284.229543,12.048 282.495543,13.034 281.135543,14.394 L281.067543,14.394 L281.067543,12.558 L275.049543,12.558 L275.049543,30 Z M309.243082,21.296 C309.243082,26.396 312.813082,30.51 317.913082,30.51 C320.293082,30.51 322.333082,29.456 323.625082,28.028 L323.693082,28.028 L323.693082,30 L329.643082,30 L329.643082,12.558 L323.625082,12.558 L323.625082,14.224 C322.197082,12.83 320.259082,12.048 317.913082,12.048 C312.813082,12.048 309.243082,16.196 309.243082,21.296 L309.243082,21.296 Z M315.635082,21.296 C315.635082,18.882 317.437082,17.182 319.715082,17.182 C321.959082,17.182 323.761082,18.882 323.761082,21.296 C323.761082,23.676 322.061082,25.376 319.715082,25.376 C317.267082,25.376 315.635082,23.676 315.635082,21.296 L315.635082,21.296 Z M336.466621,12.558 L333.950621,12.558 L333.950621,17.148 L336.466621,17.148 L336.466621,23.846 C336.466621,26.94 337.622621,30.51 342.416621,30.51 C344.898621,30.51 346.836621,29.422 346.836621,29.422 L345.340621,24.56 C345.340621,24.56 344.626621,25.104 343.844621,25.104 C342.892621,25.104 342.484621,24.322 342.484621,22.69 L342.484621,17.148 L346.156621,17.148 L346.156621,12.558 L342.484621,12.558 L342.484621,6.064 L336.466621,6.064 L336.466621,12.558 Z M368.484159,22.112 C368.518159,21.908 368.518159,21.534 368.518159,21.296 C368.518159,15.176 364.472159,12.048 359.168159,12.048 C353.898159,12.048 349.580159,16.196 349.580159,21.296 C349.580159,26.362 353.898159,30.51 359.168159,30.51 C363.044159,30.51 366.240159,29.252 368.212159,25.954 L363.860159,23.778 C362.398159,25.342 361.548159,25.716 359.610159,25.716 C358.080159,25.716 355.836159,24.798 355.836159,22.112 L368.484159,22.112 Z M356.006159,18.78 C356.108159,17.182 357.264159,15.958 359.338159,15.958 C361.106159,15.958 362.364159,16.944 362.636159,18.78 L356.006159,18.78 Z" id="ann-arbor-ultimate" fill="#3498DB" sketch:type="MSShapeGroup"></path>
    </g>
</svg>